<?xml version="1.0" encoding="utf-8"?>
<!-- Generator: Adobe Illustrator 26.0.3, SVG Export Plug-In . SVG Version: 6.00 Build 0)  -->
<svg version="1.1" id="Layer_1" xmlns="http://www.w3.org/2000/svg" xmlns:xlink="http://www.w3.org/1999/xlink" x="0px" y="0px"
	 viewBox="0 0 200 200" style="enable-background:new 0 0 200 200;" xml:space="preserve">
<g>
	<g>
		<path d="M156.75,54.82l-1.19,0.59c-8.92-10.11-21.4-23.19-43.4-23.19h-4.36v124.07c0,6.94,1.59,9.91,4.56,11.69
			c0,0.4,0,1.39,0,1.39H87.78c0,0,0-0.99,0-1.39c2.97-1.78,4.56-4.76,4.56-11.69V32.22h-4.36c-22,0-34.49,13.08-43.4,23.19
			l-1.19-0.59l6.34-24.18h100.68L156.75,54.82z"/>
	</g>
	<g>
		<path d="M87.97,47.68L51.9,141.22c-5.55,14.47-7.13,21.4-2.18,26.56v1.58H19.4v-1.58c7.33-8.92,14.67-21.21,20.61-36.47
			c5.95-15.46,38.85-100.68,38.85-100.68h15.66L87.97,47.68"/>
	</g>
	<g>
		<path d="M112.03,47.68l-6.54-17.04h15.66c0,0,32.9,85.22,38.85,100.68c5.95,15.26,13.28,27.55,20.61,36.47v1.58h-30.32v-1.58
			c4.95-5.15,3.37-12.09-2.18-26.56L112.03,47.68"/>
	</g>
</g>
</svg>
